<svg xmlns="http://www.w3.org/2000/svg" viewBox="0 0 89.08 92.13"><defs><style>.cls-1{fill:#b3b3b3;}</style></defs><title>logosb</title><g id="Layer_2" data-name="Layer 2"><g id="Layer_1-2" data-name="Layer 1"><polygon class="cls-1" points="78.19 25.4 30.44 37.6 30.44 53.41 78.19 65.61 78.19 49.88 60.96 45.48 78.2 41.12 78.19 25.4"/><polygon class="cls-1" points="11.02 40.21 58.77 28.01 58.77 12.2 11.02 0 11.02 15.72 28.25 20.13 11.01 24.49 11.02 40.21"/><path class="cls-1" d="M1.44,89.46v-9.1A1.67,1.67,0,0,1,.35,80,1.12,1.12,0,0,1,0,79.19a1.06,1.06,0,0,1,.36-.84A1.73,1.73,0,0,1,1.55,78l4.87,0a6.08,6.08,0,0,1,2.22.42,5.09,5.09,0,0,1,1.74,1.06,7.73,7.73,0,0,1,1,1.34,7.43,7.43,0,0,1,.81,1.69,6.79,6.79,0,0,1,.27,2v1.12a6.33,6.33,0,0,1-.5,2.61,5.24,5.24,0,0,1-1.31,1.86,6.59,6.59,0,0,1-1.52,1.06,6.89,6.89,0,0,1-2.94.54H1.55a1.73,1.73,0,0,1-1.19-.33A1.06,1.06,0,0,1,0,90.62a1.09,1.09,0,0,1,.36-.84A1.5,1.5,0,0,1,1.44,89.46Zm2.33,0H6.24a4.3,4.3,0,0,0,2.09-.4,3.59,3.59,0,0,0,1.38-1.32,4.17,4.17,0,0,0,.47-2.09v-1.1a4.19,4.19,0,0,0-.42-1.93,4.19,4.19,0,0,0-1.48-1.78,4.05,4.05,0,0,0-2.06-.48H3.77Z"/><path class="cls-1" d="M18.2,86.05v3.41h5.93V88.2a1.76,1.76,0,0,1,.33-1.2,1.09,1.09,0,0,1,.84-.35,1.12,1.12,0,0,1,.84.35,1.81,1.81,0,0,1,.32,1.2v3.59h-11a1.76,1.76,0,0,1-1.2-.33,1.05,1.05,0,0,1-.35-.84,1.09,1.09,0,0,1,.36-.84,1.8,1.8,0,0,1,1.19-.32h.36v-9.1h-.36a1.81,1.81,0,0,1-1.2-.32,1.09,1.09,0,0,1-.35-.85,1.05,1.05,0,0,1,.35-.84,1.76,1.76,0,0,1,1.2-.33L26,78v3.53a1.78,1.78,0,0,1-.32,1.19,1.06,1.06,0,0,1-.84.36,1.09,1.09,0,0,1-.84-.35,1.74,1.74,0,0,1-.33-1.2V80.36H18.2v3.36h2a2.58,2.58,0,0,1,.17-1.17,1.13,1.13,0,0,1,1-.56,1.05,1.05,0,0,1,.83.36,1.76,1.76,0,0,1,.33,1.2v2.68a1.88,1.88,0,0,1-.19,1,1.17,1.17,0,0,1-2,0,2.63,2.63,0,0,1-.17-1.18Z"/><path class="cls-1" d="M34.53,88.39l3.36-8h-.53a1.81,1.81,0,0,1-1.2-.32,1.12,1.12,0,0,1-.35-.85,1.09,1.09,0,0,1,.35-.84,1.76,1.76,0,0,1,1.2-.33l3.12,0a1.82,1.82,0,0,1,1.2.31,1.06,1.06,0,0,1,.36.84,1.14,1.14,0,0,1-.55,1,2.08,2.08,0,0,1-1.06.18L35.65,91.79H33.41L28.65,80.36a2.12,2.12,0,0,1-1.08-.18,1.11,1.11,0,0,1-.54-1,1.05,1.05,0,0,1,.35-.84,1.76,1.76,0,0,1,1.2-.33l3.14,0a1.81,1.81,0,0,1,1.19.31,1.06,1.06,0,0,1,.36.84,1.1,1.1,0,0,1-.36.85,1.77,1.77,0,0,1-1.19.32h-.54Z"/><path class="cls-1" d="M58,78.63a1.65,1.65,0,0,1,.47-.45,1.17,1.17,0,0,1,1.39.21,1.77,1.77,0,0,1,.32,1.19v2a1.81,1.81,0,0,1-.32,1.2,1.17,1.17,0,0,1-1.58.1,1.8,1.8,0,0,1-.42-1,1.49,1.49,0,0,0-.32-.74,3.15,3.15,0,0,0-1.3-.81A4.69,4.69,0,0,0,54.6,80a4.12,4.12,0,0,0-1.92.45,4.24,4.24,0,0,0-1.54,1.48,4.3,4.3,0,0,0-.67,2.43v1.51a3.64,3.64,0,0,0,1.22,2.8,4.79,4.79,0,0,0,3.38,1.12,6.09,6.09,0,0,0,2.19-.35,3.38,3.38,0,0,0,1.11-.81,3.19,3.19,0,0,1,.57-.47,1,1,0,0,1,.47-.11,1.09,1.09,0,0,1,.81.36,1.11,1.11,0,0,1,.36.82,1.63,1.63,0,0,1-.48,1,4.71,4.71,0,0,1-1.78,1.24,8.32,8.32,0,0,1-3.24.62,8.15,8.15,0,0,1-3.72-.85,6,6,0,0,1-2.28-2.15,5.81,5.81,0,0,1-.94-3.21V84.34A6.92,6.92,0,0,1,49,81a6,6,0,0,1,2.34-2.43,6.42,6.42,0,0,1,3.18-.85,7.07,7.07,0,0,1,1.88.24A5.59,5.59,0,0,1,58,78.63Z"/><path class="cls-1" d="M74.86,84.91a7.19,7.19,0,0,1-2,5.16,6.13,6.13,0,0,1-4.55,2.06,6,6,0,0,1-4.2-1.72,7.69,7.69,0,0,1,0-11,6,6,0,0,1,4.2-1.72,6.13,6.13,0,0,1,4.55,2.06A7.21,7.21,0,0,1,74.86,84.91Zm-2.33,0a5,5,0,0,0-1.28-3.51,3.74,3.74,0,0,0-5.82,0,5.44,5.44,0,0,0,0,7,3.75,3.75,0,0,0,5.82,0A5,5,0,0,0,72.53,84.91Z"/><path class="cls-1" d="M79.36,82.43v7h.84a1.81,1.81,0,0,1,1.2.32,1.1,1.1,0,0,1,.36.85,1.05,1.05,0,0,1-.36.83,1.76,1.76,0,0,1-1.2.33h-3a1.76,1.76,0,0,1-1.2-.33,1.09,1.09,0,0,1-.35-.84,1.06,1.06,0,0,1,.35-.83A1.54,1.54,0,0,1,77,89.46v-9.1h-.37A1.78,1.78,0,0,1,75.48,80a1.1,1.1,0,0,1-.36-.85,1.06,1.06,0,0,1,.36-.84A1.73,1.73,0,0,1,76.67,78l2.69,0,6,9.32v-7h-.84a1.81,1.81,0,0,1-1.2-.32,1.1,1.1,0,0,1-.36-.85,1.06,1.06,0,0,1,.36-.84,1.76,1.76,0,0,1,1.2-.33l3,0a1.82,1.82,0,0,1,1.2.31,1.06,1.06,0,0,1,.36.84,1.09,1.09,0,0,1-.36.84,1.51,1.51,0,0,1-1.07.33V91.79H85.34Z"/></g></g></svg>